<svg xmlns="http://www.w3.org/2000/svg" viewBox="0 0 16 16" fill-rule="evenodd" id="alarm-clock-16" width="16" height="16" ><path d="M5.5 2.286a7.444 7.444 0 0 0-4.252 3.896C.495 5.662 0 4.821 0 3.865 0 2.283 1.344 1 3 1c1.045 0 1.963.512 2.5 1.286zm9.265 3.886a7.442 7.442 0 0 0-4.261-3.891A3.032 3.032 0 0 1 13 1c1.658 0 3 1.283 3 2.865 0 .95-.49 1.786-1.235 2.307zm-2.66 7.986l1.005 1a.492.492 0 0 1-.351.842.49.49 0 0 1-.35-.144l-1.133-1.127a6.42 6.42 0 0 1-6.533 0l-1.132 1.127a.49.49 0 0 1-.35.144.493.493 0 0 1-.352-.842l1.006-1a6.364 6.364 0 0 1-2.337-4.93c0-3.53 2.88-6.393 6.43-6.393 3.553 0 6.432 2.862 6.432 6.394a6.368 6.368 0 0 1-2.334 4.93zm-1.592-5.111H8.505V5.805a.495.495 0 1 0-.993 0V9.54c0 .272.223.493.497.493h2.504a.495.495 0 0 0 .496-.493.495.495 0 0 0-.496-.493z"></path></svg>