<svg xmlns="http://www.w3.org/2000/svg" viewBox="0 0 16 16" fill-rule="evenodd" id="archive-16" width="16" height="16" ><path d="M10.004 9.92h-.002l-3.999.009h-.006a.755.755 0 0 1-.535-.222.756.756 0 0 1-.227-.541V7.48a.759.759 0 0 1 .222-.54A.759.759 0 0 1 6 6.716l3.998-.008c.424 0 .767.342.767.763l.002 1.684a.768.768 0 0 1-.762.766M16 4.84l-.004-2.594A1.252 1.252 0 0 0 14.746 1H1.25c-.335 0-.649.13-.885.367-.237.236-.366.55-.365.884l.004 2.594c.001.67.539 1.211 1.205 1.236l.012 6.806c0 .312.149.613.408.822.233.187.536.291.854.291h.003l11.045-.016c.697-.002 1.263-.503 1.262-1.117l-.014-6.783A1.247 1.247 0 0 0 16 4.841"></path></svg>