<svg xmlns="http://www.w3.org/2000/svg" viewBox="0 0 16 16" fill-rule="evenodd" id="book-16" width="16" height="16" ><path d="M14.417 3.814c.291 0 .528.22.528.491v11.204c0 .272-.237.491-.528.491H3.849C2.83 16 2 15.229 2 14.281V2.616c0-.026.012-.049.016-.073C2.012 2.493 2 2.447 2 2.398 2 1.076 3.157 0 4.58 0h9.892c.291 0 .528.22.528.491 0 .272-.237.491-.528.491H4.579c-.84 0-1.522.636-1.522 1.416 0 .78.682 1.415 1.522 1.415H14.417zM4.815 1.8H13.4c.291 0 .528.22.528.49 0 .272-.237.492-.528.492H4.815c-.292 0-.529-.22-.529-.491s.237-.491.529-.491z"></path></svg>