<svg xmlns="http://www.w3.org/2000/svg" viewBox="0 0 16 16" fill-rule="evenodd" id="camera-16" width="24" height="24" ><path d="M12.67 3.988h1.875c.804 0 1.455.674 1.455 1.505v6.98c0 .83-.651 1.504-1.455 1.504H1.455C.65 13.977 0 13.304 0 12.473v-6.98c0-.831.651-1.505 1.455-1.505L4 3.977 5.575 2h4.82l1.587 1.977.689.011zm-4.728 7.996c1.901 0 3.442-1.567 3.442-3.5s-1.54-3.5-3.442-3.5c-1.9 0-3.442 1.567-3.442 3.5s1.541 3.5 3.442 3.5zm0-1c-1.358 0-2.459-1.119-2.459-2.5 0-1.38 1.101-2.5 2.46-2.5 1.357 0 2.458 1.12 2.458 2.5 0 1.381-1.101 2.5-2.459 2.5z"></path></svg>