<svg xmlns="http://www.w3.org/2000/svg" viewBox="0 0 16 16" fill-rule="evenodd" id="case-16" width="16" height="16" ><path d="M5.491 4.935h5.018V3.021H5.491v1.914zm.678 3.191v.59H0v-2.36c0-.784.649-1.42 1.445-1.42h3.009V2.51c0-.281.232-.51.519-.51h6.055c.286 0 .519.229.519.51v2.425h3.008c.797 0 1.445.637 1.445 1.421v2.36H9.832v-.59a.515.515 0 0 0-.519-.51H6.687a.515.515 0 0 0-.518.51zm3.662 2.585v-.973H16v4.673c0 .875-.8 1.589-1.783 1.589H1.783C.801 16 0 15.286 0 14.411V9.738h6.17v.973c0 .281.23.51.518.51h2.625a.515.515 0 0 0 .518-.51z"></path></svg>