<?xml version="1.0" encoding="UTF-8"?>
<svg width="20px" height="20px" viewBox="0 0 20 20" version="1.1" xmlns="http://www.w3.org/2000/svg" xmlns:xlink="http://www.w3.org/1999/xlink">
    <title>calendar__month-20-enabled</title>
    <g id="calendar__month-20-enabled" stroke="none" stroke-width="1" fill="none" fill-rule="evenodd">
        <g id="Group" fill="#161616" transform="translate(2.000000, 1.000000)">
            <path d="M5.5,0.25 L5.5,1.5 L10.5,1.5 L10.5,0.25 L11.75,0.25 L11.75,1.5 L14.25,1.5 C14.9375,1.5 15.5,2.0625 15.5,2.75 L15.5,2.75 L15.5,15.25 C15.5,15.9375 14.9375,16.5 14.25,16.5 L14.25,16.5 L1.75,16.5 C1.0625,16.5 0.5,15.9375 0.5,15.25 L0.5,15.25 L0.5,2.75 C0.5,2.0625 1.0625,1.5 1.75,1.5 L1.75,1.5 L4.25,1.5 L4.25,0.25 L5.5,0.25 Z M14.25,6.5 L1.75,6.5 L1.75,15.25 L14.25,15.25 L14.25,6.5 Z M11.75,9 L11.75,12.75 L4.25,12.75 L4.25,9 L11.75,9 Z M4.25,2.75 L1.75,2.75 L1.75,5.25 L14.25,5.25 L14.25,2.75 L11.75,2.75 L11.75,4 L10.5,4 L10.5,2.75 L5.5,2.75 L5.5,4 L4.25,4 L4.25,2.75 Z" id="Combined-Shape"></path>
        </g>
    </g>
</svg>