<?xml version="1.0" encoding="UTF-8"?>
<svg xmlns="http://www.w3.org/2000/svg" xmlns:xlink="http://www.w3.org/1999/xlink" viewBox="0 0 2624 1272">
  <defs>
    <style>
      .cls-1 {
        stroke: url(#Merative_Purple_to_Red);
      }

      .cls-1, .cls-2, .cls-3, .cls-4, .cls-5, .cls-6, .cls-7, .cls-8, .cls-9 {
        fill: none;
        stroke-miterlimit: 10;
      }

      .cls-2 {
        stroke: url(#linear-gradient);
      }

      .cls-3 {
        stroke: url(#Merative_Purple_to_Red-3);
      }

      .cls-4 {
        stroke: url(#Merative_Purple_to_Red-7);
      }

      .cls-5 {
        stroke: url(#Merative_Purple_to_Red-2);
      }

      .cls-6 {
        stroke: url(#Merative_Purple_to_Red-5);
      }

      .cls-7 {
        stroke: url(#Merative_Purple_to_Red-6);
      }

      .cls-8 {
        stroke: url(#Merative_Purple_to_Red-4);
      }

      .cls-9 {
        stroke: url(#Merative_Purple_to_Red-8);
      }
    </style>
    <linearGradient id="Merative_Purple_to_Red" data-name="Merative Purple to Red" x1="-485.68" y1="724.8" x2="2623.77" y2="724.8" gradientUnits="userSpaceOnUse">
      <stop offset="0" stop-color="#90f"/>
      <stop offset="1" stop-color="#fa1e32"/>
    </linearGradient>
    <linearGradient id="Merative_Purple_to_Red-2" data-name="Merative Purple to Red" x1="-236.06" y1="374.53" x2="2914.79" y2="374.53" xlink:href="#Merative_Purple_to_Red"/>
    <linearGradient id="Merative_Purple_to_Red-3" data-name="Merative Purple to Red" x1="-62.27" y1="509.97" x2="2543.25" y2="509.97" xlink:href="#Merative_Purple_to_Red"/>
    <linearGradient id="Merative_Purple_to_Red-4" data-name="Merative Purple to Red" x1="99.9" y1="604.84" x2="2314.03" y2="604.84" xlink:href="#Merative_Purple_to_Red"/>
    <linearGradient id="Merative_Purple_to_Red-5" data-name="Merative Purple to Red" x1="223.92" y1="650" x2="2184.53" y2="650" xlink:href="#Merative_Purple_to_Red"/>
    <linearGradient id="Merative_Purple_to_Red-6" data-name="Merative Purple to Red" x1="347.17" y1="658.29" x2="2108.31" y2="658.29" xlink:href="#Merative_Purple_to_Red"/>
    <linearGradient id="Merative_Purple_to_Red-7" data-name="Merative Purple to Red" x1="512.94" y1="642.26" x2="2040.44" y2="642.26" xlink:href="#Merative_Purple_to_Red"/>
    <linearGradient id="Merative_Purple_to_Red-8" data-name="Merative Purple to Red" x1="640.84" y1="624.91" x2="1976.81" y2="624.91" xlink:href="#Merative_Purple_to_Red"/>
    <linearGradient id="linear-gradient" x1="1282.49" y1="323.32" x2="1925.22" y2="323.32" gradientUnits="userSpaceOnUse">
      <stop offset="0" stop-color="#90f"/>
      <stop offset=".02" stop-color="#9c00f8"/>
      <stop offset=".16" stop-color="#b408c4"/>
      <stop offset=".3" stop-color="#ca0f97"/>
      <stop offset=".44" stop-color="#db1472"/>
      <stop offset=".58" stop-color="#e81856"/>
      <stop offset=".72" stop-color="#f21b42"/>
      <stop offset=".86" stop-color="#f81d36"/>
      <stop offset="1" stop-color="#fa1e32"/>
    </linearGradient>
  </defs>
  <g id="_1" data-name="1">
    <path class="cls-1" d="M2623.54,390.99c-295.47,153.02-788.09,253.22-1345.88,253.22h-.12c-755.73,.04-1414.78,166.99-1762.93,414.43"/>
  </g>
  <g id="_2" data-name="2">
    <path class="cls-5" d="M2914.29-712.33c0,749.2-732.75,1356.54-1636.64,1356.54h-.03c-835.73,.06-1513.19,365.9-1513.19,817.17"/>
  </g>
  <g id="_3" data-name="3">
    <path class="cls-3" d="M2542.75-483.7c0,622.92-566.4,1127.91-1265.09,1127.91h-.05c-739.74,.08-1339.37,384.83-1339.37,859.44"/>
  </g>
  <g id="_4" data-name="4">
    <path class="cls-8" d="M2313.53-274.22c0,507.23-463.78,918.43-1035.87,918.43h-.04c-650.18,.08-1177.23,375.99-1177.23,839.68"/>
  </g>
  <g id="_5" data-name="5">
    <path class="cls-6" d="M2184.03-164.39c0,446.41-405.64,808.33-906.15,808.6h-.05c-581.79,0-1053.42,367.21-1053.42,820.19"/>
  </g>
  <g id="_6" data-name="6">
    <path class="cls-7" d="M2107.81-113.81c0,418.43-371.46,757.67-829.82,758h-.05c-513.77,0-930.26,352-930.26,786.2"/>
  </g>
  <g id="_7" data-name="7">
    <path class="cls-4" d="M2039.94-65.13c0,391.67-343.44,709.18-767.1,709.18h-.11c-419.82,2.59-759.29,317.51-759.29,705.61"/>
  </g>
  <g id="_8" data-name="8">
    <path class="cls-9" d="M1976.31-30.7c0,372.65-310.76,674.74-694.1,674.74l-4.36-.03c-351.53,0-636.5,284.97-636.5,636.5"/>
  </g>
  <g id="_9" data-name="9">
    <path class="cls-2" d="M1924.72,1.95c0,354.69-287.54,642.23-642.23,642.23"/>
  </g>
</svg>