<?xml version="1.0" encoding="utf-8"?>
<!-- Generator: Adobe Illustrator 26.0.3, SVG Export Plug-In . SVG Version: 6.00 Build 0)  -->
<svg version="1.1" id="Layer_1" xmlns="http://www.w3.org/2000/svg" xmlns:xlink="http://www.w3.org/1999/xlink" x="0px" y="0px"
	 viewBox="0 0 425 205" style="enable-background:new 0 0 425 205;" xml:space="preserve">
<style type="text/css">
	.st0{fill:#FFFFFF;}
	.st1{fill:url(#SVGID_1_);}
</style>
<g>
	<g>
		<path class="st0" d="M390.37,118.73v0.93h-1.21v3.39h-1.02v-3.39h-1.23v-0.93H390.37z M394.39,118.73h0.99v4.32h-0.99v-2.68
			l-1.21,1.9h-0.11l-1.21-1.9v2.68h-0.99v-4.32h0.99l1.27,1.99L394.39,118.73z"/>
	</g>
	<g>
		<linearGradient id="SVGID_1_" gradientUnits="userSpaceOnUse" x1="207.7505" y1="71.0289" x2="318.9948" y2="71.0289">
			<stop  offset="0" style="stop-color:#9900FF"/>
			<stop  offset="1" style="stop-color:#FA1E32"/>
		</linearGradient>
		<path class="st1" d="M318.99,98.84c0-30.72-24.9-55.62-55.62-55.62s-55.62,24.9-55.62,55.62h7.46c0-26.6,21.56-48.17,48.17-48.17
			c26.6,0,48.17,21.56,48.17,48.17H318.99z"/>
		<path class="st0" d="M103.53,135.48v25.7h-7.24v-26c0-5.39-4.37-9.76-9.76-9.76c-5.14,0-9.36,3.98-9.73,9.03v26.74h-7.17v-26.74
			c-0.38-5.05-4.59-9.03-9.73-9.03c-5.39,0-9.76,4.37-9.76,9.76v26H42.9v-25.7c0-9.37,7.6-16.97,16.97-16.97
			c5.42,0,10.24,2.54,13.35,6.5c3.11-3.96,7.93-6.5,13.35-6.5C95.93,118.52,103.53,126.11,103.53,135.48z M182.96,119.38
			c-9.37-0.03-16.97,7.6-16.97,16.97v24.83h7.24v-24.93c0-5.39,4.5-9.67,10.14-9.82c2.74-0.08,5.76,0.13,5.76,0.13l0.4-6.96
			C189.53,119.6,187.28,119.4,182.96,119.38z M149.94,124.96c3.85,4.3,5.78,9.47,5.78,15.51c0,1.05-0.08,2.14-0.25,3.24h-34.85
			c0.72,3.72,2.43,6.6,5.12,8.65c2.69,2.05,6,3.08,9.94,3.08c5.49,0,9.48-2.02,11.98-6.07l6.15,3.49c-4.05,6.27-10.15,9.4-18.3,9.4
			c-6.6,0-11.96-2.06-16.09-6.2c-4.13-4.13-6.2-9.36-6.2-15.68c0-6.27,2.02-11.48,6.07-15.64c4.05-4.16,9.29-6.24,15.72-6.24
			C141.11,118.52,146.09,120.67,149.94,124.96z M148.4,137.4c-0.61-3.94-2.16-6.93-4.66-8.98c-2.5-2.05-5.41-3.08-8.73-3.08
			c-3.88,0-7.1,1.1-9.65,3.29c-2.55,2.19-4.13,5.12-4.74,8.77H148.4z M233.12,126.58h14.22v34.6h7.24v-34.6h14.14v-6.99h-35.6
			V126.58z M278.66,161.18h7.24V119.6h-7.24V161.18z M382.04,143.72h-34.85c0.72,3.72,2.42,6.6,5.12,8.65
			c2.69,2.05,6,3.08,9.94,3.08c5.49,0,9.48-2.02,11.98-6.07l6.15,3.49c-4.05,6.27-10.15,9.4-18.3,9.4c-6.6,0-11.96-2.06-16.09-6.2
			c-4.13-4.13-6.2-9.36-6.2-15.68c0-6.27,2.02-11.48,6.07-15.64c4.05-4.16,9.29-6.24,15.72-6.24c6.1,0,11.07,2.15,14.93,6.45
			c3.85,4.3,5.78,9.47,5.78,15.51C382.29,141.53,382.21,142.61,382.04,143.72z M374.97,137.4c-0.61-3.94-2.16-6.93-4.66-8.98
			c-2.49-2.05-5.41-3.08-8.73-3.08c-3.88,0-7.1,1.1-9.65,3.29c-2.55,2.19-4.13,5.12-4.74,8.77H374.97z M190.41,161.18h7.82
			l13.06-33.76l13.06,33.76h7.82c0,0-14.85-37.2-15.69-39.23c-0.84-2.02-2.85-3.44-5.18-3.44s-4.37,1.41-5.18,3.44
			S190.41,161.18,190.41,161.18z M310.2,158.82c0.81,2.03,2.85,3.44,5.18,3.44c2.33,0,4.35-1.41,5.18-3.44
			c0.84-2.02,15.69-39.23,15.69-39.23h-7.82l-13.06,33.76l-13.06-33.76l-7.82,0C294.5,119.6,309.39,156.8,310.2,158.82z"/>
	</g>
</g>
</svg>
