<?xml version="1.0" encoding="UTF-8"?>
<svg width="20px" height="20px" viewBox="0 0 20 20" version="1.1" xmlns="http://www.w3.org/2000/svg" xmlns:xlink="http://www.w3.org/1999/xlink">
    <title>warning__filled--20-enabled</title>
    <g id="warning__filled--20-enabled" stroke="none" stroke-width="1" fill="none" fill-rule="evenodd">
        <g id="Organization-/-Status-/-warning--filled-/-20">
            <path d="M10,1 C5,1 1,5 1,10 C1,15 5,19 10,19 C15,19 19,15 19,10 C19,5 15,1 10,1 Z M9.2,5 L10.7,5 L10.7,12 L9.2,12 L9.2,5 Z M10,16 C9.4,16 9,15.6 9,15 C9,14.4 9.4,14 10,14 C10.6,14 11,14.4 11,15 C11,15.6 10.6,16 10,16 Z" id="Fill" fill="#F1C21B"></path>
            <path d="M9.2,5 L10.7,5 L10.7,12 L9.2,12 L9.2,5 Z M10,16 C9.4,16 9,15.6 9,15 C9,14.4 9.4,14 10,14 C10.6,14 11,14.4 11,15 C11,15.6 10.6,16 10,16 Z" id="Inner-Fill" fill="#161616"></path>
        </g>
    </g>
</svg>