<svg width="16" height="16" viewBox="0 0 16 16" fill="none" xmlns="http://www.w3.org/2000/svg">
<rect width="16" height="16" fill="white" style="mix-blend-mode:multiply"/>
<path d="M15 14.3L1.7 1L1 1.7L6.05 6.75L2 10.8V14H5.2L9.25 9.95L14.3 15L15 14.3ZM4.8 13H3V11.2L6.75 7.45L8.55 9.25L4.8 13Z" fill="#161616"/>
<path d="M14.7 3.1L12.9 1.3C12.5 0.9 11.9 0.9 11.5 1.3L7.5 5.3L8.2 6L10 4.2L11.8 6L10 7.8L10.7 8.5L14.7 4.5C15.1 4.1 15.1 3.5 14.7 3.1ZM12.5 5.3L10.7 3.5L12.2 2L14 3.8L12.5 5.3Z" fill="#161616"/>
</svg>
