<svg xmlns="http://www.w3.org/2000/svg" width="15" height="15" viewBox="0 0 16 16">
  <path fill="#4178BE" fill-rule="evenodd" d="M12.2558244,9.5278948 L4.510454,9.5278948 C4.14979092,9.5278948 3.85707885,9.24192519 3.85707885,8.88956977 C3.85707885,8.53721435 4.14979092,8.25124473 4.510454,8.25124473 L12.2558244,8.25124473 C12.6164875,8.25124473 12.9091995,8.53721435 12.9091995,8.88956977 C12.9091995,9.24192519 12.6164875,9.5278948 12.2558244,9.5278948 L12.2558244,9.5278948 Z M12.2516428,13.0099834 L4.5073178,13.0099834 C4.14665472,13.0099834 3.85394265,12.7229925 3.85394265,12.3716584 C3.85394265,12.0193029 4.14665472,11.7333333 4.5073178,11.7333333 L12.2516428,11.7333333 C12.6123059,11.7333333 12.9050179,12.0193029 12.9050179,12.3716584 C12.9050179,12.7229925 12.6123059,13.0099834 12.2516428,13.0099834 L12.2516428,13.0099834 Z M13.973417,6.20962594 L15,6.20962594 L15,14.9970637 C15,15.5506192 14.5400239,16 13.973417,16 L2.02658303,16 C1.45997611,16 1,15.5506192 1,14.9970637 L1,1.00191498 C1,0.448359505 1.45997611,0 2.02658303,0 L10.3301971,0 L10.3301971,5.50593642 C10.3301971,5.89403804 10.6521804,6.20962594 11.0494325,6.20962594 L13.973417,6.20962594 Z M14.9993326,4.80326822 L13.6715745,4.80326822 L11.7685633,4.80326822 L11.7685633,2.60947274 L11.7685633,1.02132006 L14.8895016,4.61943061 C14.9373488,4.67560322 14.9656221,4.73994638 14.9993326,4.80326822 Z"/>
</svg>
